<svg xmlns="http://www.w3.org/2000/svg" width="119" height="48" viewBox="0 0 119 48">
    <g fill="none" fill-rule="evenodd">
        <path fill="#000" d="M90.176 26.324c-.681 0-1.257-.23-1.725-.693-.47-.46-.704-1.022-.704-1.682 0-.66.238-1.22.713-1.682.476-.462 1.047-.693 1.716-.693.86 0 1.631.304 2.313.91l1.117-2.553c-.86-.805-2.068-1.207-3.623-1.207-1.62 0-2.91.498-3.874 1.494-.964.997-1.446 2.24-1.446 3.73 0 1.492.478 2.736 1.436 3.732.957.997 2.252 1.495 3.884 1.495 1.593 0 2.801-.403 3.623-1.208l-1.117-2.533c-.682.593-1.453.89-2.313.89zm-12.76-6.333v-.95h-3.084v9.817h3.083V23.79c0-.792.2-1.36.598-1.702.398-.343.816-.515 1.253-.515 1.028 0 1.542.633 1.542 1.9v5.384h3.084v-5.7c0-1.412-.356-2.504-1.07-3.276-.713-.773-1.59-1.158-2.63-1.158-1.157 0-2.083.422-2.777 1.267zm-8.426 5.64c-.422.464-.93.694-1.521.694-.591 0-1.1-.23-1.522-.694-.426-.46-.635-1.021-.635-1.682 0-.66.209-1.221.635-1.681.422-.461.93-.695 1.522-.695.59 0 1.1.234 1.521.695.427.46.64 1.02.64 1.68 0 .662-.213 1.222-.64 1.683zm.64-6.593v.834c-.785-.764-1.713-1.148-2.778-1.148-1.283 0-2.378.506-3.275 1.524-.902 1.017-1.35 2.25-1.35 3.7 0 1.452.448 2.685 1.35 3.702.897 1.018 1.992 1.524 3.275 1.524 1.065 0 1.993-.384 2.778-1.147v.833h3.08v-9.822h-3.08zm-14.803.953v-.95h-3.084v9.817h3.084V23.79c0-.792.2-1.36.597-1.702.399-.343.816-.515 1.253-.515 1.028 0 1.543.633 1.543 1.9v5.384h3.083v-5.7c0-1.412-.356-2.504-1.07-3.276-.712-.773-1.59-1.158-2.63-1.158-1.157 0-2.082.422-2.776 1.267zm55.43-5.487h3.076l-.003 14.356h-3.076l.004-14.356zm-8.177 11.14c.423.46.93.69 1.519.69.59 0 1.095-.23 1.518-.69.423-.462.635-1.02.635-1.679 0-.658-.212-1.217-.635-1.678-.423-.46-.929-.69-1.518-.69-.59 0-1.096.23-1.519.69-.423.461-.634 1.02-.634 1.678 0 .658.21 1.217.634 1.678zm3.672-6.574h3.075v9.79h-3.075v-.828c-.782.763-1.705 1.144-2.769 1.144-1.28 0-2.37-.506-3.267-1.52-.898-1.013-1.346-2.243-1.346-3.691 0-1.447.448-2.678 1.346-3.691.897-1.013 1.986-1.52 3.267-1.52 1.064 0 1.987.382 2.769 1.145v-.829zm-11.375 9.79h3.076v-9.79h-3.076v9.79zm3.214-12.639c0-.477-.163-.884-.49-1.218-.325-.335-.72-.503-1.186-.503-.465 0-.861.168-1.186.503-.327.334-.49.74-.49 1.218s.163.884.49 1.218c.325.335.72.503 1.186.503.465 0 .86-.168 1.187-.503.326-.334.489-.74.489-1.218zm-50.273 12.64h3.076V19.07h-3.076v9.79zm3.213-12.64c0-.477-.163-.884-.488-1.218-.326-.335-.722-.503-1.187-.503-.466 0-.861.168-1.186.503-.326.334-.49.74-.49 1.218s.164.884.49 1.218c.325.335.72.503 1.186.503.465 0 .861-.168 1.187-.503.325-.334.488-.74.488-1.218zM39.667 19.07h1.23s.007-.34.007-.854c0-4.14 2.802-4.098 3.193-4.098.794 0 1.653.118 2.294.328l-.26 2.533s-.642-.123-.909-.123c-.266 0-.468.016-.691.154-.313.194-.549.591-.549 1.43l-.01.63h2.154v2.842h-2.153v6.948h-3.076v-6.948h-1.23V19.07zM116.965 15.478v.394h.264c.063 0 .116-.017.16-.052.044-.035.066-.082.066-.142 0-.133-.075-.2-.226-.2h-.264zm.943 1.24h-.432l-.353-.504h-.158v.504h-.374v-1.576h.638c.2 0 .35.048.453.142.102.095.153.222.153.383 0 .112-.03.215-.087.308-.058.093-.138.16-.24.202l.4.541zm-1.654.137c.252.252.562.378.927.378.366 0 .675-.126.928-.378.253-.253.38-.56.38-.925 0-.364-.127-.672-.38-.924s-.562-.378-.928-.378c-.365 0-.675.126-.927.378-.254.252-.38.56-.38.924s.126.672.38.925zm.927.756c-.474 0-.874-.164-1.2-.491-.324-.328-.486-.724-.486-1.19 0-.476.16-.875.485-1.198.323-.321.723-.483 1.201-.483.478 0 .878.162 1.202.483.323.323.485.722.485 1.198 0 .477-.162.876-.485 1.198-.324.322-.724.483-1.202.483z"/>
        <path fill="#E1251B" d="M0 48L31.167 48 31.167 0 0 0z"/>
        <path fill="#FFF" d="M14.708 21.291c-.495.353-1.396.863-1.982 1.213-.186.12-.45.333-.54-.145-.142-.796-.558-1.465-2.044-.942-.602-.634-2.139-1.793-2.784-2.253-.781-.56-2.515-1.71-3.751-2.573-1.149-.803-1.849-1.256-2.416-1.762-1.158-1.034.543-1.459 1.267-1.674.923-.28 1.754-.55 2.822-.807 1.012-.243 4.235-.807 6.652-.945 1.72-.097 5.201-.405 6.707 1.506 0 0-3.678 2.922-3.93 8.382M14.2 32.372c.5 4.574-.619 2.38-.747 2.076-.478-1.13-1.18-4.877-1.16-6.975 0 0 1.614 2.163 1.907 4.9m5.27-17.65s-.144 3.12-2.536 4.94c.047-1.211 1.223-3.78 2.535-4.94m1.5 12.413c-.931.08-4.424.013-4.26-4.576 4.67-3.33 4.793-7.027 4.286-9.157 1.124-.944 2.237-1.42 3.145-1.806.46-.194 1.017-.312 1.218-.02.542.793 2.395.824 1.341-1.232-.297-.572-.932-.94-1.858-.861-.955.082-2.795.608-4.754 2.119-2.14-2.347-5.461-2.248-7.802-2.153-4.2.166-9.831 1.58-12.285 2.498v4.597c1.32 1.006 2.996 1.985 3.375 2.216.67.411 4.29 2.633 6.364 4.854.569.614.277.526.019.85-.39.531-.086 1.259.286 1.595.227.213.469.052.46.985-.01 2.062.42 4.93.798 6.502.484 2.02 1.496 3.66 1.843 4.055 1.127 1.337 2.373 1.488 2.683-.638.109-.725.088-1.898.037-3.41-.035-1.021-.215-4.345-2.753-8.238-.286-.425-.226-.546.07-.68.928-.465 1.68-.879 1.68-.879.455 4.272 2.834 5.349 5.673 5.24 2.357-.092 6.373-1.61 10.632-4.31v-2.453c-4.057 2.768-7.678 4.69-10.198 4.902"/>
    </g>
</svg>
